<?xml version="1.0" encoding="UTF-8" standalone="no"?>
<!DOCTYPE svg PUBLIC "-//W3C//DTD SVG 1.1//EN"
 "http://www.w3.org/Graphics/SVG/1.1/DTD/svg11.dtd">
<!-- Generated by graphviz version 2.43.0 (0)
 -->
<!-- Title: sourcetree Pages: 1 -->
<svg width="612pt" height="260pt"
 viewBox="0.00 0.00 611.50 260.00" xmlns="http://www.w3.org/2000/svg" xmlns:xlink="http://www.w3.org/1999/xlink">
<g id="graph0" class="graph" transform="scale(1 1) rotate(0) translate(4 256)">
<title>sourcetree</title>
<polygon fill="white" stroke="transparent" points="-4,4 -4,-256 607.5,-256 607.5,4 -4,4"/>
<!-- mulle&#45;bunchobjects -->
<g id="node1" class="node">
<title>mulle&#45;bunchobjects</title>
<polygon fill="yellow" stroke="black" points="415.5,-252 260.5,-252 260.5,-216 415.5,-216 415.5,-252"/>
<text text-anchor="middle" x="338" y="-230.3" font-family="Times,serif" font-size="14.00">mulle&#45;bunchobjects</text>
</g>
<!-- MulleObjC -->
<g id="node2" class="node">
<title>MulleObjC</title>
<g id="a_node2"><a xlink:href="https://github.com/mulle-objc/MulleObjC" xlink:title="MulleObjC">
<polygon fill="lightgrey" stroke="black" points="326,-180 234,-180 234,-144 326,-144 326,-180"/>
<text text-anchor="middle" x="280" y="-158.3" font-family="Times,serif" font-size="14.00">MulleObjC</text>
</a>
</g>
</g>
<!-- mulle&#45;bunchobjects&#45;&gt;MulleObjC -->
<g id="edge1" class="edge">
<title>mulle&#45;bunchobjects&#45;&gt;MulleObjC</title>
<path fill="none" stroke="black" d="M323.66,-215.7C316.71,-207.3 308.23,-197.07 300.6,-187.86"/>
<polygon fill="black" stroke="black" points="303.25,-185.57 294.17,-180.1 297.86,-190.04 303.25,-185.57"/>
</g>
<!-- objc&#45;compat -->
<g id="node3" class="node">
<title>objc&#45;compat</title>
<g id="a_node3"><a xlink:href="https://github.com/MulleFoundation/objc-compat" xlink:title="objc&#45;compat">
<polygon fill="lightgrey" stroke="black" points="514.5,-180 411.5,-180 411.5,-144 514.5,-144 514.5,-180"/>
<text text-anchor="middle" x="463" y="-158.3" font-family="Times,serif" font-size="14.00">objc&#45;compat</text>
</a>
</g>
</g>
<!-- mulle&#45;bunchobjects&#45;&gt;objc&#45;compat -->
<g id="edge2" class="edge">
<title>mulle&#45;bunchobjects&#45;&gt;objc&#45;compat</title>
<path fill="none" stroke="black" d="M368.58,-215.88C385.07,-206.64 405.62,-195.13 423.34,-185.21"/>
<polygon fill="black" stroke="black" points="425.29,-188.13 432.3,-180.19 421.87,-182.02 425.29,-188.13"/>
</g>
<!-- mulle&#45;objc&#45;cc -->
<g id="node6" class="node">
<title>mulle&#45;objc&#45;cc</title>
<g id="a_node6"><a xlink:href="https://github.com/mulle-cc/mulle-objc-cc" xlink:title="mulle&#45;objc&#45;cc">
<polygon fill="lightgrey" stroke="black" points="110,-108 0,-108 0,-72 110,-72 110,-108"/>
<text text-anchor="middle" x="55" y="-86.3" font-family="Times,serif" font-size="14.00">mulle&#45;objc&#45;cc</text>
</a>
</g>
</g>
<!-- MulleObjC&#45;&gt;mulle&#45;objc&#45;cc -->
<g id="edge3" class="edge">
<title>MulleObjC&#45;&gt;mulle&#45;objc&#45;cc</title>
<path fill="none" stroke="black" d="M233.92,-146.67C200.88,-136.38 155.92,-122.4 119.34,-111.02"/>
<polygon fill="black" stroke="black" points="120.33,-107.66 109.74,-108.03 118.25,-114.34 120.33,-107.66"/>
</g>
<!-- mulle&#45;objc&#45;debug -->
<g id="node8" class="node">
<title>mulle&#45;objc&#45;debug</title>
<g id="a_node8"><a xlink:href="https://github.com/mulle-objc/mulle-objc-debug" xlink:title="mulle&#45;objc&#45;debug">
<polygon fill="lightgrey" stroke="black" points="267.5,-108 128.5,-108 128.5,-72 267.5,-72 267.5,-108"/>
<text text-anchor="middle" x="198" y="-86.3" font-family="Times,serif" font-size="14.00">mulle&#45;objc&#45;debug</text>
</a>
</g>
</g>
<!-- MulleObjC&#45;&gt;mulle&#45;objc&#45;debug -->
<g id="edge4" class="edge">
<title>MulleObjC&#45;&gt;mulle&#45;objc&#45;debug</title>
<path fill="none" stroke="black" d="M259.73,-143.7C249.5,-134.97 236.94,-124.24 225.82,-114.75"/>
<polygon fill="black" stroke="black" points="227.91,-111.94 218.04,-108.1 223.37,-117.26 227.91,-111.94"/>
</g>
<!-- mulle&#45;objc&#45;runtime -->
<g id="node9" class="node">
<title>mulle&#45;objc&#45;runtime</title>
<g id="a_node9"><a xlink:href="https://github.com/mulle-objc/mulle-objc-runtime" xlink:title="mulle&#45;objc&#45;runtime">
<polygon fill="lightgrey" stroke="black" points="438,-108 286,-108 286,-72 438,-72 438,-108"/>
<text text-anchor="middle" x="362" y="-86.3" font-family="Times,serif" font-size="14.00">mulle&#45;objc&#45;runtime</text>
</a>
</g>
</g>
<!-- MulleObjC&#45;&gt;mulle&#45;objc&#45;runtime -->
<g id="edge5" class="edge">
<title>MulleObjC&#45;&gt;mulle&#45;objc&#45;runtime</title>
<path fill="none" stroke="black" d="M300.27,-143.7C310.5,-134.97 323.06,-124.24 334.18,-114.75"/>
<polygon fill="black" stroke="black" points="336.63,-117.26 341.96,-108.1 332.09,-111.94 336.63,-117.26"/>
</g>
<!-- mulle&#45;objc&#45;compat -->
<g id="node7" class="node">
<title>mulle&#45;objc&#45;compat</title>
<g id="a_node7"><a xlink:href="https://github.com/mulle-objc/mulle-objc-compat" xlink:title="mulle&#45;objc&#45;compat">
<polygon fill="lightgrey" stroke="black" points="603.5,-108 456.5,-108 456.5,-72 603.5,-72 603.5,-108"/>
<text text-anchor="middle" x="530" y="-86.3" font-family="Times,serif" font-size="14.00">mulle&#45;objc&#45;compat</text>
</a>
</g>
</g>
<!-- objc&#45;compat&#45;&gt;mulle&#45;objc&#45;compat -->
<g id="edge8" class="edge">
<title>objc&#45;compat&#45;&gt;mulle&#45;objc&#45;compat</title>
<path fill="none" stroke="black" d="M479.56,-143.7C487.68,-135.22 497.59,-124.86 506.47,-115.58"/>
<polygon fill="black" stroke="black" points="509.24,-117.75 513.63,-108.1 504.19,-112.91 509.24,-117.75"/>
</g>
<!-- mulle&#45;core&#45;all&#45;load -->
<g id="node4" class="node">
<title>mulle&#45;core&#45;all&#45;load</title>
<g id="a_node4"><a xlink:href="https://github.com/mulle-core/mulle-core-all-load" xlink:title="mulle&#45;core&#45;all&#45;load">
<polygon fill="lightgrey" stroke="black" points="367,-36 219,-36 219,0 367,0 367,-36"/>
<text text-anchor="middle" x="293" y="-14.3" font-family="Times,serif" font-size="14.00">mulle&#45;core&#45;all&#45;load</text>
</a>
</g>
</g>
<!-- mulle&#45;core -->
<g id="node5" class="node">
<title>mulle&#45;core</title>
<g id="a_node5"><a xlink:href="https://github.com/mulle-core/mulle-core" xlink:title="mulle&#45;core">
<polygon fill="lightgrey" stroke="black" points="477,-36 385,-36 385,0 477,0 477,-36"/>
<text text-anchor="middle" x="431" y="-14.3" font-family="Times,serif" font-size="14.00">mulle&#45;core</text>
</a>
</g>
</g>
<!-- mulle&#45;objc&#45;runtime&#45;&gt;mulle&#45;core&#45;all&#45;load -->
<g id="edge7" class="edge">
<title>mulle&#45;objc&#45;runtime&#45;&gt;mulle&#45;core&#45;all&#45;load</title>
<path fill="none" stroke="black" d="M344.94,-71.7C336.5,-63.14 326.18,-52.66 316.96,-43.3"/>
<polygon fill="black" stroke="black" points="319.37,-40.77 309.86,-36.1 314.39,-45.68 319.37,-40.77"/>
</g>
<!-- mulle&#45;objc&#45;runtime&#45;&gt;mulle&#45;core -->
<g id="edge6" class="edge">
<title>mulle&#45;objc&#45;runtime&#45;&gt;mulle&#45;core</title>
<path fill="none" stroke="black" d="M379.06,-71.7C387.5,-63.14 397.82,-52.66 407.04,-43.3"/>
<polygon fill="black" stroke="black" points="409.61,-45.68 414.14,-36.1 404.63,-40.77 409.61,-45.68"/>
</g>
</g>
</svg>
