<?xml version="1.0" encoding="UTF-8" standalone="no"?>
<!DOCTYPE svg PUBLIC "-//W3C//DTD SVG 1.1//EN"
 "http://www.w3.org/Graphics/SVG/1.1/DTD/svg11.dtd">
<!-- Generated by graphviz version 2.43.0 (0)
 -->
<!-- Title: sourcetree Pages: 1 -->
<svg width="3777pt" height="188pt"
 viewBox="0.00 0.00 3776.50 188.00" xmlns="http://www.w3.org/2000/svg" xmlns:xlink="http://www.w3.org/1999/xlink">
<g id="graph0" class="graph" transform="scale(1 1) rotate(0) translate(4 184)">
<title>sourcetree</title>
<polygon fill="white" stroke="transparent" points="-4,4 -4,-184 3772.5,-184 3772.5,4 -4,4"/>
<!-- mulle&#45;bunchobjects -->
<g id="node1" class="node">
<title>mulle&#45;bunchobjects</title>
<polygon fill="yellow" stroke="black" points="2016.5,-180 1861.5,-180 1861.5,-144 2016.5,-144 2016.5,-180"/>
<text text-anchor="middle" x="1939" y="-158.3" font-family="Times,serif" font-size="14.00">mulle&#45;bunchobjects</text>
</g>
<!-- mulle&#45;core -->
<g id="node7" class="node">
<title>mulle&#45;core</title>
<g id="a_node7"><a xlink:href="https://github.com/mulle-core/mulle-core" xlink:title="mulle&#45;core">
<polygon fill="lightgrey" stroke="black" points="1927,-108 1835,-108 1835,-72 1927,-72 1927,-108"/>
<text text-anchor="middle" x="1881" y="-86.3" font-family="Times,serif" font-size="14.00">mulle&#45;core</text>
</a>
</g>
</g>
<!-- mulle&#45;bunchobjects&#45;&gt;mulle&#45;core -->
<g id="edge1" class="edge">
<title>mulle&#45;bunchobjects&#45;&gt;mulle&#45;core</title>
<path fill="none" stroke="black" d="M1924.66,-143.7C1917.71,-135.3 1909.23,-125.07 1901.6,-115.86"/>
<polygon fill="black" stroke="black" points="1904.25,-113.57 1895.17,-108.1 1898.86,-118.04 1904.25,-113.57"/>
</g>
<!-- objc&#45;compat -->
<g id="node8" class="node">
<title>objc&#45;compat</title>
<g id="a_node8"><a xlink:href="https://github.com/MulleFoundation/objc-compat" xlink:title="objc&#45;compat">
<polygon fill="lightgrey" stroke="black" points="2897.5,-108 2794.5,-108 2794.5,-72 2897.5,-72 2897.5,-108"/>
<text text-anchor="middle" x="2846" y="-86.3" font-family="Times,serif" font-size="14.00">objc&#45;compat</text>
</a>
</g>
</g>
<!-- mulle&#45;bunchobjects&#45;&gt;objc&#45;compat -->
<g id="edge2" class="edge">
<title>mulle&#45;bunchobjects&#45;&gt;objc&#45;compat</title>
<path fill="none" stroke="black" d="M2016.72,-155C2193.68,-141.34 2623.67,-108.16 2784.2,-95.77"/>
<polygon fill="black" stroke="black" points="2784.68,-99.24 2794.38,-94.98 2784.14,-92.26 2784.68,-99.24"/>
</g>
<!-- dlfcn&#45;win32 -->
<g id="node2" class="node">
<title>dlfcn&#45;win32</title>
<g id="a_node2"><a xlink:href="https://github.com/mulle-core/dlfcn-win32" xlink:title="dlfcn&#45;win32">
<polygon fill="lightgrey" stroke="black" points="100,-36 0,-36 0,0 100,0 100,-36"/>
<text text-anchor="middle" x="50" y="-14.3" font-family="Times,serif" font-size="14.00">dlfcn&#45;win32</text>
</a>
</g>
</g>
<!-- mintomic -->
<g id="node3" class="node">
<title>mintomic</title>
<g id="a_node3"><a xlink:href="https://github.com/mulle-concurrent/mintomic" xlink:title="mintomic">
<polygon fill="lightgrey" stroke="black" points="201.5,-36 118.5,-36 118.5,0 201.5,0 201.5,-36"/>
<text text-anchor="middle" x="160" y="-14.3" font-family="Times,serif" font-size="14.00">mintomic</text>
</a>
</g>
</g>
<!-- mulle&#45;aba -->
<g id="node4" class="node">
<title>mulle&#45;aba</title>
<g id="a_node4"><a xlink:href="https://github.com/mulle-concurrent/mulle-aba@*" xlink:title="mulle&#45;aba">
<polygon fill="lightgrey" stroke="black" points="306,-36 220,-36 220,0 306,0 306,-36"/>
<text text-anchor="middle" x="263" y="-14.3" font-family="Times,serif" font-size="14.00">mulle&#45;aba</text>
</a>
</g>
</g>
<!-- mulle&#45;allocator -->
<g id="node5" class="node">
<title>mulle&#45;allocator</title>
<g id="a_node5"><a xlink:href="https://github.com/mulle-c/mulle-allocator@*" xlink:title="mulle&#45;allocator">
<polygon fill="lightgrey" stroke="black" points="447.5,-36 324.5,-36 324.5,0 447.5,0 447.5,-36"/>
<text text-anchor="middle" x="386" y="-14.3" font-family="Times,serif" font-size="14.00">mulle&#45;allocator</text>
</a>
</g>
</g>
<!-- mulle&#45;buffer -->
<g id="node6" class="node">
<title>mulle&#45;buffer</title>
<g id="a_node6"><a xlink:href="https://github.com/mulle-c/mulle-buffer@*" xlink:title="mulle&#45;buffer">
<polygon fill="lightgrey" stroke="black" points="570,-36 466,-36 466,0 570,0 570,-36"/>
<text text-anchor="middle" x="518" y="-14.3" font-family="Times,serif" font-size="14.00">mulle&#45;buffer</text>
</a>
</g>
</g>
<!-- mulle&#45;core&#45;&gt;dlfcn&#45;win32 -->
<g id="edge3" class="edge">
<title>mulle&#45;core&#45;&gt;dlfcn&#45;win32</title>
<path fill="none" stroke="black" d="M1834.88,-89.18C1593.9,-89.9 476.83,-90.27 110.12,-35.88"/>
<polygon fill="black" stroke="black" points="110.43,-32.39 100.02,-34.34 109.38,-39.31 110.43,-32.39"/>
</g>
<!-- mulle&#45;core&#45;&gt;mintomic -->
<g id="edge4" class="edge">
<title>mulle&#45;core&#45;&gt;mintomic</title>
<path fill="none" stroke="black" d="M1834.82,-89.34C1602.14,-90.77 556.17,-93.89 211.76,-35.73"/>
<polygon fill="black" stroke="black" points="212.23,-32.26 201.77,-33.99 211.03,-39.16 212.23,-32.26"/>
</g>
<!-- mulle&#45;core&#45;&gt;mulle&#45;aba -->
<g id="edge5" class="edge">
<title>mulle&#45;core&#45;&gt;mulle&#45;aba</title>
<path fill="none" stroke="black" d="M1834.75,-89.19C1611.04,-89.84 639.23,-89.56 316.46,-35.89"/>
<polygon fill="black" stroke="black" points="316.63,-32.37 306.18,-34.13 315.44,-39.27 316.63,-32.37"/>
</g>
<!-- mulle&#45;core&#45;&gt;mulle&#45;allocator -->
<g id="edge6" class="edge">
<title>mulle&#45;core&#45;&gt;mulle&#45;allocator</title>
<path fill="none" stroke="black" d="M1834.84,-88.51C1624.3,-86.09 753.19,-74.01 458.07,-35.93"/>
<polygon fill="black" stroke="black" points="458.19,-32.41 447.82,-34.56 457.27,-39.35 458.19,-32.41"/>
</g>
<!-- mulle&#45;core&#45;&gt;mulle&#45;buffer -->
<g id="edge7" class="edge">
<title>mulle&#45;core&#45;&gt;mulle&#45;buffer</title>
<path fill="none" stroke="black" d="M1834.77,-88.55C1635.57,-86.39 848.78,-75.57 580.17,-35.91"/>
<polygon fill="black" stroke="black" points="580.48,-32.42 570.07,-34.36 579.42,-39.33 580.48,-32.42"/>
</g>
<!-- mulle&#45;c11 -->
<g id="node9" class="node">
<title>mulle&#45;c11</title>
<g id="a_node9"><a xlink:href="https://github.com/mulle-c/mulle-c11@*" xlink:title="mulle&#45;c11">
<polygon fill="lightgrey" stroke="black" points="674,-36 588,-36 588,0 674,0 674,-36"/>
<text text-anchor="middle" x="631" y="-14.3" font-family="Times,serif" font-size="14.00">mulle&#45;c11</text>
</a>
</g>
</g>
<!-- mulle&#45;core&#45;&gt;mulle&#45;c11 -->
<g id="edge8" class="edge">
<title>mulle&#45;core&#45;&gt;mulle&#45;c11</title>
<path fill="none" stroke="black" d="M1834.93,-88.63C1646.09,-86.87 930.17,-77.63 684.14,-35.85"/>
<polygon fill="black" stroke="black" points="684.64,-32.38 674.18,-34.09 683.42,-39.27 684.64,-32.38"/>
</g>
<!-- mulle&#45;concurrent -->
<g id="node10" class="node">
<title>mulle&#45;concurrent</title>
<g id="a_node10"><a xlink:href="https://github.com/mulle-concurrent/mulle-concurrent@*" xlink:title="mulle&#45;concurrent">
<polygon fill="lightgrey" stroke="black" points="831.5,-36 692.5,-36 692.5,0 831.5,0 831.5,-36"/>
<text text-anchor="middle" x="762" y="-14.3" font-family="Times,serif" font-size="14.00">mulle&#45;concurrent</text>
</a>
</g>
</g>
<!-- mulle&#45;core&#45;&gt;mulle&#45;concurrent -->
<g id="edge9" class="edge">
<title>mulle&#45;core&#45;&gt;mulle&#45;concurrent</title>
<path fill="none" stroke="black" d="M1834.84,-89.33C1689.71,-89.82 1229.79,-87.03 841.66,-36.1"/>
<polygon fill="black" stroke="black" points="842.01,-32.61 831.64,-34.77 841.09,-39.55 842.01,-32.61"/>
</g>
<!-- mulle&#45;container&#45;debug -->
<g id="node11" class="node">
<title>mulle&#45;container&#45;debug</title>
<g id="a_node11"><a xlink:href="https://github.com/mulle-c/mulle-container-debug" xlink:title="mulle&#45;container&#45;debug">
<polygon fill="lightgrey" stroke="black" points="1026.5,-36 849.5,-36 849.5,0 1026.5,0 1026.5,-36"/>
<text text-anchor="middle" x="938" y="-14.3" font-family="Times,serif" font-size="14.00">mulle&#45;container&#45;debug</text>
</a>
</g>
</g>
<!-- mulle&#45;core&#45;&gt;mulle&#45;container&#45;debug -->
<g id="edge11" class="edge">
<title>mulle&#45;core&#45;&gt;mulle&#45;container&#45;debug</title>
<path fill="none" stroke="black" d="M1834.58,-87.87C1708.19,-84.4 1347.14,-71.98 1036.71,-36"/>
<polygon fill="black" stroke="black" points="1036.95,-32.5 1026.61,-34.82 1036.14,-39.46 1036.95,-32.5"/>
</g>
<!-- mulle&#45;container -->
<g id="node12" class="node">
<title>mulle&#45;container</title>
<g id="a_node12"><a xlink:href="https://github.com/mulle-c/mulle-container@*" xlink:title="mulle&#45;container">
<polygon fill="lightgrey" stroke="black" points="1173,-36 1045,-36 1045,0 1173,0 1173,-36"/>
<text text-anchor="middle" x="1109" y="-14.3" font-family="Times,serif" font-size="14.00">mulle&#45;container</text>
</a>
</g>
</g>
<!-- mulle&#45;core&#45;&gt;mulle&#45;container -->
<g id="edge10" class="edge">
<title>mulle&#45;core&#45;&gt;mulle&#45;container</title>
<path fill="none" stroke="black" d="M1834.92,-87.94C1724.12,-84.88 1433.98,-73.76 1183.4,-36.08"/>
<polygon fill="black" stroke="black" points="1183.8,-32.6 1173.38,-34.56 1182.74,-39.52 1183.8,-32.6"/>
</g>
<!-- mulle&#45;data -->
<g id="node13" class="node">
<title>mulle&#45;data</title>
<g id="a_node13"><a xlink:href="https://github.com/mulle-c/mulle-data@*" xlink:title="mulle&#45;data">
<polygon fill="lightgrey" stroke="black" points="1283,-36 1191,-36 1191,0 1283,0 1283,-36"/>
<text text-anchor="middle" x="1237" y="-14.3" font-family="Times,serif" font-size="14.00">mulle&#45;data</text>
</a>
</g>
</g>
<!-- mulle&#45;core&#45;&gt;mulle&#45;data -->
<g id="edge12" class="edge">
<title>mulle&#45;core&#45;&gt;mulle&#45;data</title>
<path fill="none" stroke="black" d="M1834.71,-88.13C1736.33,-85.57 1499.25,-75.67 1293.13,-35.97"/>
<polygon fill="black" stroke="black" points="1293.52,-32.48 1283.03,-34 1292.18,-39.35 1293.52,-32.48"/>
</g>
<!-- mulle&#45;dlfcn -->
<g id="node14" class="node">
<title>mulle&#45;dlfcn</title>
<g id="a_node14"><a xlink:href="https://github.com/mulle-core/mulle-dlfcn@*" xlink:title="mulle&#45;dlfcn">
<polygon fill="lightgrey" stroke="black" points="1397,-36 1301,-36 1301,0 1397,0 1397,-36"/>
<text text-anchor="middle" x="1349" y="-14.3" font-family="Times,serif" font-size="14.00">mulle&#45;dlfcn</text>
</a>
</g>
</g>
<!-- mulle&#45;core&#45;&gt;mulle&#45;dlfcn -->
<g id="edge13" class="edge">
<title>mulle&#45;core&#45;&gt;mulle&#45;dlfcn</title>
<path fill="none" stroke="black" d="M1834.72,-86.59C1751.03,-81.63 1568.98,-68.13 1407.18,-36.03"/>
<polygon fill="black" stroke="black" points="1407.54,-32.53 1397.05,-33.99 1406.16,-39.39 1407.54,-32.53"/>
</g>
<!-- mulle&#45;fifo -->
<g id="node15" class="node">
<title>mulle&#45;fifo</title>
<g id="a_node15"><a xlink:href="https://github.com/mulle-concurrent/mulle-fifo@*" xlink:title="mulle&#45;fifo">
<polygon fill="lightgrey" stroke="black" points="1498.5,-36 1415.5,-36 1415.5,0 1498.5,0 1498.5,-36"/>
<text text-anchor="middle" x="1457" y="-14.3" font-family="Times,serif" font-size="14.00">mulle&#45;fifo</text>
</a>
</g>
</g>
<!-- mulle&#45;core&#45;&gt;mulle&#45;fifo -->
<g id="edge14" class="edge">
<title>mulle&#45;core&#45;&gt;mulle&#45;fifo</title>
<path fill="none" stroke="black" d="M1834.71,-85.25C1765.41,-79.01 1630.6,-64.53 1508.46,-36.12"/>
<polygon fill="black" stroke="black" points="1509.11,-32.68 1498.57,-33.78 1507.5,-39.49 1509.11,-32.68"/>
</g>
<!-- mulle&#45;fprintf -->
<g id="node16" class="node">
<title>mulle&#45;fprintf</title>
<g id="a_node16"><a xlink:href="https://github.com/mulle-core/mulle-fprintf@*" xlink:title="mulle&#45;fprintf">
<polygon fill="lightgrey" stroke="black" points="1623.5,-36 1516.5,-36 1516.5,0 1623.5,0 1623.5,-36"/>
<text text-anchor="middle" x="1570" y="-14.3" font-family="Times,serif" font-size="14.00">mulle&#45;fprintf</text>
</a>
</g>
</g>
<!-- mulle&#45;core&#45;&gt;mulle&#45;fprintf -->
<g id="edge15" class="edge">
<title>mulle&#45;core&#45;&gt;mulle&#45;fprintf</title>
<path fill="none" stroke="black" d="M1834.93,-80.02C1786.96,-70.5 1709.45,-54.58 1633.88,-36.4"/>
<polygon fill="black" stroke="black" points="1634.26,-32.89 1623.72,-33.93 1632.61,-39.69 1634.26,-32.89"/>
</g>
<!-- mulle&#45;http -->
<g id="node17" class="node">
<title>mulle&#45;http</title>
<g id="a_node17"><a xlink:href="https://github.com/mulle-c/mulle-http@*" xlink:title="mulle&#45;http">
<polygon fill="lightgrey" stroke="black" points="1732.5,-36 1641.5,-36 1641.5,0 1732.5,0 1732.5,-36"/>
<text text-anchor="middle" x="1687" y="-14.3" font-family="Times,serif" font-size="14.00">mulle&#45;http</text>
</a>
</g>
</g>
<!-- mulle&#45;core&#45;&gt;mulle&#45;http -->
<g id="edge16" class="edge">
<title>mulle&#45;core&#45;&gt;mulle&#45;http</title>
<path fill="none" stroke="black" d="M1834.53,-72.23C1806.84,-62.24 1771.52,-49.5 1742.38,-38.98"/>
<polygon fill="black" stroke="black" points="1743.35,-35.61 1732.75,-35.51 1740.97,-42.2 1743.35,-35.61"/>
</g>
<!-- mulle&#45;linkedlist -->
<g id="node18" class="node">
<title>mulle&#45;linkedlist</title>
<g id="a_node18"><a xlink:href="https://github.com/mulle-concurrent/mulle-linkedlist@*" xlink:title="mulle&#45;linkedlist">
<polygon fill="lightgrey" stroke="black" points="1877.5,-36 1750.5,-36 1750.5,0 1877.5,0 1877.5,-36"/>
<text text-anchor="middle" x="1814" y="-14.3" font-family="Times,serif" font-size="14.00">mulle&#45;linkedlist</text>
</a>
</g>
</g>
<!-- mulle&#45;core&#45;&gt;mulle&#45;linkedlist -->
<g id="edge17" class="edge">
<title>mulle&#45;core&#45;&gt;mulle&#45;linkedlist</title>
<path fill="none" stroke="black" d="M1864.44,-71.7C1856.32,-63.22 1846.41,-52.86 1837.53,-43.58"/>
<polygon fill="black" stroke="black" points="1839.81,-40.91 1830.37,-36.1 1834.76,-45.75 1839.81,-40.91"/>
</g>
<!-- mulle&#45;mmap -->
<g id="node19" class="node">
<title>mulle&#45;mmap</title>
<g id="a_node19"><a xlink:href="https://github.com/mulle-core/mulle-mmap@*" xlink:title="mulle&#45;mmap">
<polygon fill="lightgrey" stroke="black" points="2000.5,-36 1895.5,-36 1895.5,0 2000.5,0 2000.5,-36"/>
<text text-anchor="middle" x="1948" y="-14.3" font-family="Times,serif" font-size="14.00">mulle&#45;mmap</text>
</a>
</g>
</g>
<!-- mulle&#45;core&#45;&gt;mulle&#45;mmap -->
<g id="edge18" class="edge">
<title>mulle&#45;core&#45;&gt;mulle&#45;mmap</title>
<path fill="none" stroke="black" d="M1897.56,-71.7C1905.68,-63.22 1915.59,-52.86 1924.47,-43.58"/>
<polygon fill="black" stroke="black" points="1927.24,-45.75 1931.63,-36.1 1922.19,-40.91 1927.24,-45.75"/>
</g>
<!-- mulle&#45;multififo -->
<g id="node20" class="node">
<title>mulle&#45;multififo</title>
<g id="a_node20"><a xlink:href="https://github.com/mulle-concurrent/mulle-multififo@*" xlink:title="mulle&#45;multififo">
<polygon fill="lightgrey" stroke="black" points="2139.5,-36 2018.5,-36 2018.5,0 2139.5,0 2139.5,-36"/>
<text text-anchor="middle" x="2079" y="-14.3" font-family="Times,serif" font-size="14.00">mulle&#45;multififo</text>
</a>
</g>
</g>
<!-- mulle&#45;core&#45;&gt;mulle&#45;multififo -->
<g id="edge19" class="edge">
<title>mulle&#45;core&#45;&gt;mulle&#45;multififo</title>
<path fill="none" stroke="black" d="M1927.17,-72.68C1955.22,-62.76 1991.27,-50.02 2021.2,-39.44"/>
<polygon fill="black" stroke="black" points="2022.42,-42.72 2030.68,-36.08 2020.09,-36.12 2022.42,-42.72"/>
</g>
<!-- mulle&#45;rbtree -->
<g id="node21" class="node">
<title>mulle&#45;rbtree</title>
<g id="a_node21"><a xlink:href="https://github.com/mulle-c/mulle-rbtree@*" xlink:title="mulle&#45;rbtree">
<polygon fill="lightgrey" stroke="black" points="2264,-36 2158,-36 2158,0 2264,0 2264,-36"/>
<text text-anchor="middle" x="2211" y="-14.3" font-family="Times,serif" font-size="14.00">mulle&#45;rbtree</text>
</a>
</g>
</g>
<!-- mulle&#45;core&#45;&gt;mulle&#45;rbtree -->
<g id="edge20" class="edge">
<title>mulle&#45;core&#45;&gt;mulle&#45;rbtree</title>
<path fill="none" stroke="black" d="M1927.03,-80.84C1980.4,-71.15 2070.92,-54.03 2148,-36 2148.1,-35.98 2148.2,-35.95 2148.3,-35.93"/>
<polygon fill="black" stroke="black" points="2148.89,-39.39 2157.79,-33.63 2147.24,-32.58 2148.89,-39.39"/>
</g>
<!-- mulle&#45;regex -->
<g id="node22" class="node">
<title>mulle&#45;regex</title>
<g id="a_node22"><a xlink:href="https://github.com/mulle-c/mulle-regex@" xlink:title="mulle&#45;regex">
<polygon fill="lightgrey" stroke="black" points="2383.5,-36 2282.5,-36 2282.5,0 2383.5,0 2383.5,-36"/>
<text text-anchor="middle" x="2333" y="-14.3" font-family="Times,serif" font-size="14.00">mulle&#45;regex</text>
</a>
</g>
</g>
<!-- mulle&#45;core&#45;&gt;mulle&#45;regex -->
<g id="edge21" class="edge">
<title>mulle&#45;core&#45;&gt;mulle&#45;regex</title>
<path fill="none" stroke="black" d="M1927.22,-84.89C1999.03,-78.04 2141.8,-62.57 2272.22,-35.99"/>
<polygon fill="black" stroke="black" points="2273.3,-39.34 2282.39,-33.89 2271.88,-32.48 2273.3,-39.34"/>
</g>
<!-- mulle&#45;slug -->
<g id="node23" class="node">
<title>mulle&#45;slug</title>
<g id="a_node23"><a xlink:href="https://github.com/mulle-c/mulle-slug@*" xlink:title="mulle&#45;slug">
<polygon fill="lightgrey" stroke="black" points="2492.5,-36 2401.5,-36 2401.5,0 2492.5,0 2492.5,-36"/>
<text text-anchor="middle" x="2447" y="-14.3" font-family="Times,serif" font-size="14.00">mulle&#45;slug</text>
</a>
</g>
</g>
<!-- mulle&#45;core&#45;&gt;mulle&#45;slug -->
<g id="edge22" class="edge">
<title>mulle&#45;core&#45;&gt;mulle&#45;slug</title>
<path fill="none" stroke="black" d="M1927.27,-87.24C2015.82,-83.23 2215.33,-71.02 2391.3,-35.89"/>
<polygon fill="black" stroke="black" points="2392.15,-39.29 2401.26,-33.88 2390.76,-32.43 2392.15,-39.29"/>
</g>
<!-- mulle&#45;sprintf -->
<g id="node24" class="node">
<title>mulle&#45;sprintf</title>
<g id="a_node24"><a xlink:href="https://github.com/mulle-core/mulle-sprintf@*" xlink:title="mulle&#45;sprintf">
<polygon fill="lightgrey" stroke="black" points="2619.5,-36 2510.5,-36 2510.5,0 2619.5,0 2619.5,-36"/>
<text text-anchor="middle" x="2565" y="-14.3" font-family="Times,serif" font-size="14.00">mulle&#45;sprintf</text>
</a>
</g>
</g>
<!-- mulle&#45;core&#45;&gt;mulle&#45;sprintf -->
<g id="edge23" class="edge">
<title>mulle&#45;core&#45;&gt;mulle&#45;sprintf</title>
<path fill="none" stroke="black" d="M1927.24,-87.8C2029.18,-84.56 2280.9,-73.33 2500.24,-35.94"/>
<polygon fill="black" stroke="black" points="2501.07,-39.35 2510.33,-34.19 2499.88,-32.45 2501.07,-39.35"/>
</g>
<!-- mulle&#45;stacktrace -->
<g id="node25" class="node">
<title>mulle&#45;stacktrace</title>
<g id="a_node25"><a xlink:href="https://github.com/mulle-core/mulle-stacktrace@*" xlink:title="mulle&#45;stacktrace">
<polygon fill="lightgrey" stroke="black" points="2772.5,-36 2637.5,-36 2637.5,0 2772.5,0 2772.5,-36"/>
<text text-anchor="middle" x="2705" y="-14.3" font-family="Times,serif" font-size="14.00">mulle&#45;stacktrace</text>
</a>
</g>
</g>
<!-- mulle&#45;core&#45;&gt;mulle&#45;stacktrace -->
<g id="edge24" class="edge">
<title>mulle&#45;core&#45;&gt;mulle&#45;stacktrace</title>
<path fill="none" stroke="black" d="M1927.15,-88.07C2043.24,-85.24 2356.78,-74.48 2627.48,-35.93"/>
<polygon fill="black" stroke="black" points="2628.1,-39.38 2637.5,-34.49 2627.1,-32.45 2628.1,-39.38"/>
</g>
<!-- mulle&#45;storage -->
<g id="node26" class="node">
<title>mulle&#45;storage</title>
<g id="a_node26"><a xlink:href="https://github.com/mulle-c/mulle-storage@*" xlink:title="mulle&#45;storage">
<polygon fill="lightgrey" stroke="black" points="2905.5,-36 2790.5,-36 2790.5,0 2905.5,0 2905.5,-36"/>
<text text-anchor="middle" x="2848" y="-14.3" font-family="Times,serif" font-size="14.00">mulle&#45;storage</text>
</a>
</g>
</g>
<!-- mulle&#45;core&#45;&gt;mulle&#45;storage -->
<g id="edge25" class="edge">
<title>mulle&#45;core&#45;&gt;mulle&#45;storage</title>
<path fill="none" stroke="black" d="M1927.28,-89.42C2059.4,-89.95 2449.57,-86.88 2779.94,-36.16"/>
<polygon fill="black" stroke="black" points="2780.84,-39.56 2790.18,-34.57 2779.77,-32.64 2780.84,-39.56"/>
</g>
<!-- mulle&#45;thread -->
<g id="node27" class="node">
<title>mulle&#45;thread</title>
<g id="a_node27"><a xlink:href="https://github.com/mulle-concurrent/mulle-thread@*" xlink:title="mulle&#45;thread">
<polygon fill="lightgrey" stroke="black" points="3032,-36 2924,-36 2924,0 3032,0 3032,-36"/>
<text text-anchor="middle" x="2978" y="-14.3" font-family="Times,serif" font-size="14.00">mulle&#45;thread</text>
</a>
</g>
</g>
<!-- mulle&#45;core&#45;&gt;mulle&#45;thread -->
<g id="edge26" class="edge">
<title>mulle&#45;core&#45;&gt;mulle&#45;thread</title>
<path fill="none" stroke="black" d="M1927.07,-87.94C2098.58,-83.79 2700.66,-67.41 2913.71,-35.95"/>
<polygon fill="black" stroke="black" points="2914.51,-39.37 2923.86,-34.39 2913.45,-32.45 2914.51,-39.37"/>
</g>
<!-- mulle&#45;time -->
<g id="node28" class="node">
<title>mulle&#45;time</title>
<g id="a_node28"><a xlink:href="https://github.com/mulle-core/mulle-time@*" xlink:title="mulle&#45;time">
<polygon fill="lightgrey" stroke="black" points="3143.5,-36 3050.5,-36 3050.5,0 3143.5,0 3143.5,-36"/>
<text text-anchor="middle" x="3097" y="-14.3" font-family="Times,serif" font-size="14.00">mulle&#45;time</text>
</a>
</g>
</g>
<!-- mulle&#45;core&#45;&gt;mulle&#45;time -->
<g id="edge27" class="edge">
<title>mulle&#45;core&#45;&gt;mulle&#45;time</title>
<path fill="none" stroke="black" d="M1927.17,-88.42C2112.22,-85.88 2801.3,-74.11 3040.44,-35.75"/>
<polygon fill="black" stroke="black" points="3041.17,-39.17 3050.46,-34.08 3040.02,-32.27 3041.17,-39.17"/>
</g>
<!-- mulle&#45;unicode -->
<g id="node29" class="node">
<title>mulle&#45;unicode</title>
<g id="a_node29"><a xlink:href="https://github.com/mulle-c/mulle-unicode@*" xlink:title="mulle&#45;unicode">
<polygon fill="lightgrey" stroke="black" points="3278,-36 3162,-36 3162,0 3278,0 3278,-36"/>
<text text-anchor="middle" x="3220" y="-14.3" font-family="Times,serif" font-size="14.00">mulle&#45;unicode</text>
</a>
</g>
</g>
<!-- mulle&#45;core&#45;&gt;mulle&#45;unicode -->
<g id="edge28" class="edge">
<title>mulle&#45;core&#45;&gt;mulle&#45;unicode</title>
<path fill="none" stroke="black" d="M1927.14,-88.36C2123.19,-85.42 2888.73,-71.97 3151.42,-36.01"/>
<polygon fill="black" stroke="black" points="3152.27,-39.42 3161.68,-34.55 3151.29,-32.49 3152.27,-39.42"/>
</g>
<!-- mulle&#45;url -->
<g id="node30" class="node">
<title>mulle&#45;url</title>
<g id="a_node30"><a xlink:href="https://github.com/mulle-c/mulle-url@*" xlink:title="mulle&#45;url">
<polygon fill="lightgrey" stroke="black" points="3377.5,-36 3296.5,-36 3296.5,0 3377.5,0 3377.5,-36"/>
<text text-anchor="middle" x="3337" y="-14.3" font-family="Times,serif" font-size="14.00">mulle&#45;url</text>
</a>
</g>
</g>
<!-- mulle&#45;core&#45;&gt;mulle&#45;url -->
<g id="edge29" class="edge">
<title>mulle&#45;core&#45;&gt;mulle&#45;url</title>
<path fill="none" stroke="black" d="M1927.29,-88.05C2150.35,-83.38 3110.46,-62.03 3286.33,-35.57"/>
<polygon fill="black" stroke="black" points="3287.04,-39 3296.33,-33.9 3285.89,-32.1 3287.04,-39"/>
</g>
<!-- mulle&#45;utf -->
<g id="node31" class="node">
<title>mulle&#45;utf</title>
<g id="a_node31"><a xlink:href="https://github.com/mulle-c/mulle-utf@*" xlink:title="mulle&#45;utf">
<polygon fill="lightgrey" stroke="black" points="3476.5,-36 3395.5,-36 3395.5,0 3476.5,0 3476.5,-36"/>
<text text-anchor="middle" x="3436" y="-14.3" font-family="Times,serif" font-size="14.00">mulle&#45;utf</text>
</a>
</g>
</g>
<!-- mulle&#45;core&#45;&gt;mulle&#45;utf -->
<g id="edge30" class="edge">
<title>mulle&#45;core&#45;&gt;mulle&#45;utf</title>
<path fill="none" stroke="black" d="M1927.01,-88.2C2159.28,-84.04 3198.91,-64.12 3385.23,-35.83"/>
<polygon fill="black" stroke="black" points="3386.06,-39.24 3395.34,-34.13 3384.9,-32.33 3386.06,-39.24"/>
</g>
<!-- mulle&#45;vararg -->
<g id="node32" class="node">
<title>mulle&#45;vararg</title>
<g id="a_node32"><a xlink:href="https://github.com/mulle-c/mulle-vararg@*" xlink:title="mulle&#45;vararg">
<polygon fill="lightgrey" stroke="black" points="3603,-36 3495,-36 3495,0 3603,0 3603,-36"/>
<text text-anchor="middle" x="3549" y="-14.3" font-family="Times,serif" font-size="14.00">mulle&#45;vararg</text>
</a>
</g>
</g>
<!-- mulle&#45;core&#45;&gt;mulle&#45;vararg -->
<g id="edge31" class="edge">
<title>mulle&#45;core&#45;&gt;mulle&#45;vararg</title>
<path fill="none" stroke="black" d="M1927.13,-88.11C2169.01,-83.37 3287.05,-60.38 3484.9,-35.81"/>
<polygon fill="black" stroke="black" points="3485.44,-39.27 3494.87,-34.46 3484.49,-32.34 3485.44,-39.27"/>
</g>
<!-- mulle&#45;objc&#45;compat -->
<g id="node33" class="node">
<title>mulle&#45;objc&#45;compat</title>
<g id="a_node33"><a xlink:href="https://github.com/mulle-objc/mulle-objc-compat" xlink:title="mulle&#45;objc&#45;compat">
<polygon fill="lightgrey" stroke="black" points="3768.5,-36 3621.5,-36 3621.5,0 3768.5,0 3768.5,-36"/>
<text text-anchor="middle" x="3695" y="-14.3" font-family="Times,serif" font-size="14.00">mulle&#45;objc&#45;compat</text>
</a>
</g>
</g>
<!-- objc&#45;compat&#45;&gt;mulle&#45;objc&#45;compat -->
<g id="edge32" class="edge">
<title>objc&#45;compat&#45;&gt;mulle&#45;objc&#45;compat</title>
<path fill="none" stroke="black" d="M2897.8,-87.79C3020.2,-84.42 3337.01,-72.72 3611.18,-35.99"/>
<polygon fill="black" stroke="black" points="3611.88,-39.43 3621.32,-34.62 3610.94,-32.49 3611.88,-39.43"/>
</g>
</g>
</svg>
