<?xml version="1.0" encoding="UTF-8" standalone="no"?>
<!DOCTYPE svg PUBLIC "-//W3C//DTD SVG 1.1//EN"
 "http://www.w3.org/Graphics/SVG/1.1/DTD/svg11.dtd">
<!-- Generated by graphviz version 2.43.0 (0)
 -->
<!-- Title: sourcetree Pages: 1 -->
<svg width="163pt" height="188pt"
 viewBox="0.00 0.00 163.00 188.00" xmlns="http://www.w3.org/2000/svg" xmlns:xlink="http://www.w3.org/1999/xlink">
<g id="graph0" class="graph" transform="scale(1 1) rotate(0) translate(4 184)">
<title>sourcetree</title>
<polygon fill="white" stroke="transparent" points="-4,4 -4,-184 159,-184 159,4 -4,4"/>
<!-- mulle&#45;bunchobjects -->
<g id="node1" class="node">
<title>mulle&#45;bunchobjects</title>
<polygon fill="yellow" stroke="black" points="155,-180 0,-180 0,-144 155,-144 155,-180"/>
<text text-anchor="middle" x="77.5" y="-158.3" font-family="Times,serif" font-size="14.00">mulle&#45;bunchobjects</text>
</g>
<!-- objc&#45;compat -->
<g id="node2" class="node">
<title>objc&#45;compat</title>
<g id="a_node2"><a xlink:href="https://github.com/MulleFoundation/objc-compat" xlink:title="objc&#45;compat">
<polygon fill="lightgrey" stroke="black" points="129,-108 26,-108 26,-72 129,-72 129,-108"/>
<text text-anchor="middle" x="77.5" y="-86.3" font-family="Times,serif" font-size="14.00">objc&#45;compat</text>
</a>
</g>
</g>
<!-- mulle&#45;bunchobjects&#45;&gt;objc&#45;compat -->
<g id="edge1" class="edge">
<title>mulle&#45;bunchobjects&#45;&gt;objc&#45;compat</title>
<path fill="none" stroke="black" d="M77.5,-143.7C77.5,-135.98 77.5,-126.71 77.5,-118.11"/>
<polygon fill="black" stroke="black" points="81,-118.1 77.5,-108.1 74,-118.1 81,-118.1"/>
</g>
<!-- mulle&#45;objc&#45;compat -->
<g id="node3" class="node">
<title>mulle&#45;objc&#45;compat</title>
<g id="a_node3"><a xlink:href="https://github.com/mulle-objc/mulle-objc-compat" xlink:title="mulle&#45;objc&#45;compat">
<polygon fill="lightgrey" stroke="black" points="151,-36 4,-36 4,0 151,0 151,-36"/>
<text text-anchor="middle" x="77.5" y="-14.3" font-family="Times,serif" font-size="14.00">mulle&#45;objc&#45;compat</text>
</a>
</g>
</g>
<!-- objc&#45;compat&#45;&gt;mulle&#45;objc&#45;compat -->
<g id="edge2" class="edge">
<title>objc&#45;compat&#45;&gt;mulle&#45;objc&#45;compat</title>
<path fill="none" stroke="black" d="M77.5,-71.7C77.5,-63.98 77.5,-54.71 77.5,-46.11"/>
<polygon fill="black" stroke="black" points="81,-46.1 77.5,-36.1 74,-46.1 81,-46.1"/>
</g>
</g>
</svg>
