<?xml version="1.0" encoding="UTF-8" standalone="no"?>
<!DOCTYPE svg PUBLIC "-//W3C//DTD SVG 1.1//EN"
 "http://www.w3.org/Graphics/SVG/1.1/DTD/svg11.dtd">
<!-- Generated by graphviz version 2.43.0 (0)
 -->
<!-- Title: sourcetree Pages: 1 -->
<svg width="3021pt" height="260pt"
 viewBox="0.00 0.00 3020.50 260.00" xmlns="http://www.w3.org/2000/svg" xmlns:xlink="http://www.w3.org/1999/xlink">
<g id="graph0" class="graph" transform="scale(1 1) rotate(0) translate(4 256)">
<title>sourcetree</title>
<polygon fill="white" stroke="transparent" points="-4,4 -4,-256 3016.5,-256 3016.5,4 -4,4"/>
<!-- mulle&#45;bunchobjects -->
<g id="node1" class="node">
<title>mulle&#45;bunchobjects</title>
<polygon fill="yellow" stroke="black" points="1706.5,-252 1551.5,-252 1551.5,-216 1706.5,-216 1706.5,-252"/>
<text text-anchor="middle" x="1629" y="-230.3" font-family="Times,serif" font-size="14.00">mulle&#45;bunchobjects</text>
</g>
<!-- MulleFoundationBase -->
<g id="node2" class="node">
<title>MulleFoundationBase</title>
<g id="a_node2"><a xlink:href="https://github.com/MulleFoundation/MulleFoundationBase" xlink:title="MulleFoundationBase">
<polygon fill="lightgrey" stroke="black" points="1637,-180 1465,-180 1465,-144 1637,-144 1637,-180"/>
<text text-anchor="middle" x="1551" y="-158.3" font-family="Times,serif" font-size="14.00">MulleFoundationBase</text>
</a>
</g>
</g>
<!-- mulle&#45;bunchobjects&#45;&gt;MulleFoundationBase -->
<g id="edge1" class="edge">
<title>mulle&#45;bunchobjects&#45;&gt;MulleFoundationBase</title>
<path fill="none" stroke="black" d="M1609.72,-215.7C1600.08,-207.05 1588.27,-196.45 1577.77,-187.03"/>
<polygon fill="black" stroke="black" points="1579.84,-184.18 1570.06,-180.1 1575.16,-189.39 1579.84,-184.18"/>
</g>
<!-- objc&#45;compat -->
<g id="node3" class="node">
<title>objc&#45;compat</title>
<g id="a_node3"><a xlink:href="https://github.com/MulleFoundation/objc-compat" xlink:title="objc&#45;compat">
<polygon fill="lightgrey" stroke="black" points="2374.5,-180 2271.5,-180 2271.5,-144 2374.5,-144 2374.5,-180"/>
<text text-anchor="middle" x="2323" y="-158.3" font-family="Times,serif" font-size="14.00">objc&#45;compat</text>
</a>
</g>
</g>
<!-- mulle&#45;bunchobjects&#45;&gt;objc&#45;compat -->
<g id="edge2" class="edge">
<title>mulle&#45;bunchobjects&#45;&gt;objc&#45;compat</title>
<path fill="none" stroke="black" d="M1706.59,-225.17C1845.58,-211.15 2134.31,-182.03 2261.07,-169.25"/>
<polygon fill="black" stroke="black" points="2261.77,-172.69 2271.36,-168.21 2261.06,-165.73 2261.77,-172.69"/>
</g>
<!-- MulleObjC -->
<g id="node4" class="node">
<title>MulleObjC</title>
<g id="a_node4"><a xlink:href="https://github.com/mulle-objc/MulleObjC" xlink:title="MulleObjC">
<polygon fill="lightgrey" stroke="black" points="244,-108 152,-108 152,-72 244,-72 244,-108"/>
<text text-anchor="middle" x="198" y="-86.3" font-family="Times,serif" font-size="14.00">MulleObjC</text>
</a>
</g>
</g>
<!-- MulleFoundationBase&#45;&gt;MulleObjC -->
<g id="edge3" class="edge">
<title>MulleFoundationBase&#45;&gt;MulleObjC</title>
<path fill="none" stroke="black" d="M1464.74,-160.38C1217.2,-158.17 506.73,-148.5 254.24,-107.87"/>
<polygon fill="black" stroke="black" points="254.44,-104.36 244,-106.17 253.29,-111.26 254.44,-104.36"/>
</g>
<!-- MulleObjCArchiverFoundation -->
<g id="node5" class="node">
<title>MulleObjCArchiverFoundation</title>
<g id="a_node5"><a xlink:href="https://github.com/MulleFoundation/MulleObjCArchiverFoundation@*" xlink:title="MulleObjCArchiverFoundation">
<polygon fill="lightgrey" stroke="black" points="495.5,-108 262.5,-108 262.5,-72 495.5,-72 495.5,-108"/>
<text text-anchor="middle" x="379" y="-86.3" font-family="Times,serif" font-size="14.00">MulleObjCArchiverFoundation</text>
</a>
</g>
</g>
<!-- MulleFoundationBase&#45;&gt;MulleObjCArchiverFoundation -->
<g id="edge4" class="edge">
<title>MulleFoundationBase&#45;&gt;MulleObjCArchiverFoundation</title>
<path fill="none" stroke="black" d="M1464.98,-159.11C1287.52,-154.67 867.75,-141.4 505.89,-108.13"/>
<polygon fill="black" stroke="black" points="506.02,-104.63 495.74,-107.19 505.37,-111.6 506.02,-104.63"/>
</g>
<!-- MulleObjCContainerFoundation -->
<g id="node6" class="node">
<title>MulleObjCContainerFoundation</title>
<g id="a_node6"><a xlink:href="https://github.com/MulleFoundation/MulleObjCContainerFoundation@*" xlink:title="MulleObjCContainerFoundation">
<polygon fill="lightgrey" stroke="black" points="756.5,-108 513.5,-108 513.5,-72 756.5,-72 756.5,-108"/>
<text text-anchor="middle" x="635" y="-86.3" font-family="Times,serif" font-size="14.00">MulleObjCContainerFoundation</text>
</a>
</g>
</g>
<!-- MulleFoundationBase&#45;&gt;MulleObjCContainerFoundation -->
<g id="edge5" class="edge">
<title>MulleFoundationBase&#45;&gt;MulleObjCContainerFoundation</title>
<path fill="none" stroke="black" d="M1464.79,-156.96C1321.82,-149.86 1026.45,-133.55 766.76,-108.14"/>
<polygon fill="black" stroke="black" points="767.06,-104.65 756.76,-107.16 766.37,-111.62 767.06,-104.65"/>
</g>
<!-- MulleObjCKVCFoundation -->
<g id="node7" class="node">
<title>MulleObjCKVCFoundation</title>
<g id="a_node7"><a xlink:href="https://github.com/MulleFoundation/MulleObjCKVCFoundation@*" xlink:title="MulleObjCKVCFoundation">
<polygon fill="lightgrey" stroke="black" points="977.5,-108 774.5,-108 774.5,-72 977.5,-72 977.5,-108"/>
<text text-anchor="middle" x="876" y="-86.3" font-family="Times,serif" font-size="14.00">MulleObjCKVCFoundation</text>
</a>
</g>
</g>
<!-- MulleFoundationBase&#45;&gt;MulleObjCKVCFoundation -->
<g id="edge6" class="edge">
<title>MulleFoundationBase&#45;&gt;MulleObjCKVCFoundation</title>
<path fill="none" stroke="black" d="M1464.83,-154.47C1356.12,-145.88 1163.19,-129.47 987.53,-108.02"/>
<polygon fill="black" stroke="black" points="987.94,-104.55 977.59,-106.8 987.09,-111.49 987.94,-104.55"/>
</g>
<!-- MulleObjCLockFoundation -->
<g id="node8" class="node">
<title>MulleObjCLockFoundation</title>
<g id="a_node8"><a xlink:href="https://github.com/MulleFoundation/MulleObjCLockFoundation@*" xlink:title="MulleObjCLockFoundation">
<polygon fill="lightgrey" stroke="black" points="1202,-108 996,-108 996,-72 1202,-72 1202,-108"/>
<text text-anchor="middle" x="1099" y="-86.3" font-family="Times,serif" font-size="14.00">MulleObjCLockFoundation</text>
</a>
</g>
</g>
<!-- MulleFoundationBase&#45;&gt;MulleObjCLockFoundation -->
<g id="edge7" class="edge">
<title>MulleFoundationBase&#45;&gt;MulleObjCLockFoundation</title>
<path fill="none" stroke="black" d="M1464.92,-147.67C1393.19,-136.56 1290.47,-120.65 1212.11,-108.52"/>
<polygon fill="black" stroke="black" points="1212.61,-105.05 1202.19,-106.98 1211.54,-111.97 1212.61,-105.05"/>
</g>
<!-- MulleObjCMathFoundation -->
<g id="node9" class="node">
<title>MulleObjCMathFoundation</title>
<g id="a_node9"><a xlink:href="https://github.com/MulleFoundation/MulleObjCMathFoundation@*" xlink:title="MulleObjCMathFoundation">
<polygon fill="lightgrey" stroke="black" points="1430,-108 1220,-108 1220,-72 1430,-72 1430,-108"/>
<text text-anchor="middle" x="1325" y="-86.3" font-family="Times,serif" font-size="14.00">MulleObjCMathFoundation</text>
</a>
</g>
</g>
<!-- MulleFoundationBase&#45;&gt;MulleObjCMathFoundation -->
<g id="edge8" class="edge">
<title>MulleFoundationBase&#45;&gt;MulleObjCMathFoundation</title>
<path fill="none" stroke="black" d="M1496,-143.97C1464.01,-134.06 1423.52,-121.51 1389.96,-111.12"/>
<polygon fill="black" stroke="black" points="1390.83,-107.73 1380.24,-108.11 1388.76,-114.41 1390.83,-107.73"/>
</g>
<!-- MulleObjCPlistFoundation -->
<g id="node10" class="node">
<title>MulleObjCPlistFoundation</title>
<g id="a_node10"><a xlink:href="https://github.com/MulleFoundation/MulleObjCPlistFoundation@*" xlink:title="MulleObjCPlistFoundation">
<polygon fill="lightgrey" stroke="black" points="1653.5,-108 1448.5,-108 1448.5,-72 1653.5,-72 1653.5,-108"/>
<text text-anchor="middle" x="1551" y="-86.3" font-family="Times,serif" font-size="14.00">MulleObjCPlistFoundation</text>
</a>
</g>
</g>
<!-- MulleFoundationBase&#45;&gt;MulleObjCPlistFoundation -->
<g id="edge9" class="edge">
<title>MulleFoundationBase&#45;&gt;MulleObjCPlistFoundation</title>
<path fill="none" stroke="black" d="M1551,-143.7C1551,-135.98 1551,-126.71 1551,-118.11"/>
<polygon fill="black" stroke="black" points="1554.5,-118.1 1551,-108.1 1547.5,-118.1 1554.5,-118.1"/>
</g>
<!-- MulleObjCStandardFoundation -->
<g id="node11" class="node">
<title>MulleObjCStandardFoundation</title>
<g id="a_node11"><a xlink:href="https://github.com/MulleFoundation/MulleObjCStandardFoundation@*" xlink:title="MulleObjCStandardFoundation">
<polygon fill="lightgrey" stroke="black" points="1910.5,-108 1671.5,-108 1671.5,-72 1910.5,-72 1910.5,-108"/>
<text text-anchor="middle" x="1791" y="-86.3" font-family="Times,serif" font-size="14.00">MulleObjCStandardFoundation</text>
</a>
</g>
</g>
<!-- MulleFoundationBase&#45;&gt;MulleObjCStandardFoundation -->
<g id="edge10" class="edge">
<title>MulleFoundationBase&#45;&gt;MulleObjCStandardFoundation</title>
<path fill="none" stroke="black" d="M1609.4,-143.97C1643.52,-134.01 1686.75,-121.41 1722.47,-110.99"/>
<polygon fill="black" stroke="black" points="1723.71,-114.27 1732.33,-108.11 1721.75,-107.55 1723.71,-114.27"/>
</g>
<!-- MulleObjCTimeFoundation -->
<g id="node12" class="node">
<title>MulleObjCTimeFoundation</title>
<g id="a_node12"><a xlink:href="https://github.com/MulleFoundation/MulleObjCTimeFoundation@*" xlink:title="MulleObjCTimeFoundation">
<polygon fill="lightgrey" stroke="black" points="2137,-108 1929,-108 1929,-72 2137,-72 2137,-108"/>
<text text-anchor="middle" x="2033" y="-86.3" font-family="Times,serif" font-size="14.00">MulleObjCTimeFoundation</text>
</a>
</g>
</g>
<!-- MulleFoundationBase&#45;&gt;MulleObjCTimeFoundation -->
<g id="edge11" class="edge">
<title>MulleFoundationBase&#45;&gt;MulleObjCTimeFoundation</title>
<path fill="none" stroke="black" d="M1637.27,-148.7C1711.86,-138.03 1822.56,-122.13 1919,-108 1919.1,-107.99 1919.2,-107.97 1919.31,-107.96"/>
<polygon fill="black" stroke="black" points="1919.55,-111.46 1928.94,-106.54 1918.53,-104.53 1919.55,-111.46"/>
</g>
<!-- MulleObjCUnicodeFoundation -->
<g id="node13" class="node">
<title>MulleObjCUnicodeFoundation</title>
<g id="a_node13"><a xlink:href="https://github.com/MulleFoundation/MulleObjCUnicodeFoundation@*" xlink:title="MulleObjCUnicodeFoundation">
<polygon fill="lightgrey" stroke="black" points="2386.5,-108 2155.5,-108 2155.5,-72 2386.5,-72 2386.5,-108"/>
<text text-anchor="middle" x="2271" y="-86.3" font-family="Times,serif" font-size="14.00">MulleObjCUnicodeFoundation</text>
</a>
</g>
</g>
<!-- MulleFoundationBase&#45;&gt;MulleObjCUnicodeFoundation -->
<g id="edge12" class="edge">
<title>MulleFoundationBase&#45;&gt;MulleObjCUnicodeFoundation</title>
<path fill="none" stroke="black" d="M1637.34,-154.57C1751.19,-145.81 1957.96,-128.92 2145.22,-108.06"/>
<polygon fill="black" stroke="black" points="2145.7,-111.53 2155.25,-106.93 2144.92,-104.57 2145.7,-111.53"/>
</g>
<!-- MulleObjCUUIDFoundation -->
<g id="node14" class="node">
<title>MulleObjCUUIDFoundation</title>
<g id="a_node14"><a xlink:href="https://github.com/MulleFoundation/MulleObjCUUIDFoundation@*" xlink:title="MulleObjCUUIDFoundation">
<polygon fill="lightgrey" stroke="black" points="2617.5,-108 2404.5,-108 2404.5,-72 2617.5,-72 2617.5,-108"/>
<text text-anchor="middle" x="2511" y="-86.3" font-family="Times,serif" font-size="14.00">MulleObjCUUIDFoundation</text>
</a>
</g>
</g>
<!-- MulleFoundationBase&#45;&gt;MulleObjCUUIDFoundation -->
<g id="edge13" class="edge">
<title>MulleFoundationBase&#45;&gt;MulleObjCUUIDFoundation</title>
<path fill="none" stroke="black" d="M1637.26,-157.99C1788.58,-152.17 2111.84,-137.4 2394.19,-108.14"/>
<polygon fill="black" stroke="black" points="2394.64,-111.62 2404.22,-107.1 2393.91,-104.65 2394.64,-111.62"/>
</g>
<!-- MulleObjCValueFoundation -->
<g id="node15" class="node">
<title>MulleObjCValueFoundation</title>
<g id="a_node15"><a xlink:href="https://github.com/MulleFoundation/MulleObjCValueFoundation@*" xlink:title="MulleObjCValueFoundation">
<polygon fill="lightgrey" stroke="black" points="2847,-108 2635,-108 2635,-72 2847,-72 2847,-108"/>
<text text-anchor="middle" x="2741" y="-86.3" font-family="Times,serif" font-size="14.00">MulleObjCValueFoundation</text>
</a>
</g>
</g>
<!-- MulleFoundationBase&#45;&gt;MulleObjCValueFoundation -->
<g id="edge14" class="edge">
<title>MulleFoundationBase&#45;&gt;MulleObjCValueFoundation</title>
<path fill="none" stroke="black" d="M1637.34,-159.64C1818.6,-156.15 2252.18,-144.52 2624.68,-108.18"/>
<polygon fill="black" stroke="black" points="2625.24,-111.64 2634.85,-107.18 2624.56,-104.68 2625.24,-111.64"/>
</g>
<!-- mulle&#45;objc&#45;compat -->
<g id="node17" class="node">
<title>mulle&#45;objc&#45;compat</title>
<g id="a_node17"><a xlink:href="https://github.com/mulle-objc/mulle-objc-compat" xlink:title="mulle&#45;objc&#45;compat">
<polygon fill="lightgrey" stroke="black" points="3012.5,-108 2865.5,-108 2865.5,-72 3012.5,-72 3012.5,-108"/>
<text text-anchor="middle" x="2939" y="-86.3" font-family="Times,serif" font-size="14.00">mulle&#45;objc&#45;compat</text>
</a>
</g>
</g>
<!-- objc&#45;compat&#45;&gt;mulle&#45;objc&#45;compat -->
<g id="edge18" class="edge">
<title>objc&#45;compat&#45;&gt;mulle&#45;objc&#45;compat</title>
<path fill="none" stroke="black" d="M2374.67,-157.64C2468.4,-151.15 2672.84,-135.23 2855.26,-108.02"/>
<polygon fill="black" stroke="black" points="2855.94,-111.46 2865.3,-106.5 2854.89,-104.53 2855.94,-111.46"/>
</g>
<!-- mulle&#45;objc&#45;cc -->
<g id="node16" class="node">
<title>mulle&#45;objc&#45;cc</title>
<g id="a_node16"><a xlink:href="https://github.com/mulle-cc/mulle-objc-cc" xlink:title="mulle&#45;objc&#45;cc">
<polygon fill="lightgrey" stroke="black" points="110,-36 0,-36 0,0 110,0 110,-36"/>
<text text-anchor="middle" x="55" y="-14.3" font-family="Times,serif" font-size="14.00">mulle&#45;objc&#45;cc</text>
</a>
</g>
</g>
<!-- MulleObjC&#45;&gt;mulle&#45;objc&#45;cc -->
<g id="edge15" class="edge">
<title>MulleObjC&#45;&gt;mulle&#45;objc&#45;cc</title>
<path fill="none" stroke="black" d="M163.02,-71.88C143.8,-62.47 119.77,-50.71 99.26,-40.67"/>
<polygon fill="black" stroke="black" points="100.64,-37.44 90.12,-36.19 97.56,-43.73 100.64,-37.44"/>
</g>
<!-- mulle&#45;objc&#45;debug -->
<g id="node18" class="node">
<title>mulle&#45;objc&#45;debug</title>
<g id="a_node18"><a xlink:href="https://github.com/mulle-objc/mulle-objc-debug" xlink:title="mulle&#45;objc&#45;debug">
<polygon fill="lightgrey" stroke="black" points="267.5,-36 128.5,-36 128.5,0 267.5,0 267.5,-36"/>
<text text-anchor="middle" x="198" y="-14.3" font-family="Times,serif" font-size="14.00">mulle&#45;objc&#45;debug</text>
</a>
</g>
</g>
<!-- MulleObjC&#45;&gt;mulle&#45;objc&#45;debug -->
<g id="edge16" class="edge">
<title>MulleObjC&#45;&gt;mulle&#45;objc&#45;debug</title>
<path fill="none" stroke="black" d="M198,-71.7C198,-63.98 198,-54.71 198,-46.11"/>
<polygon fill="black" stroke="black" points="201.5,-46.1 198,-36.1 194.5,-46.1 201.5,-46.1"/>
</g>
<!-- mulle&#45;objc&#45;runtime -->
<g id="node19" class="node">
<title>mulle&#45;objc&#45;runtime</title>
<g id="a_node19"><a xlink:href="https://github.com/mulle-objc/mulle-objc-runtime" xlink:title="mulle&#45;objc&#45;runtime">
<polygon fill="lightgrey" stroke="black" points="438,-36 286,-36 286,0 438,0 438,-36"/>
<text text-anchor="middle" x="362" y="-14.3" font-family="Times,serif" font-size="14.00">mulle&#45;objc&#45;runtime</text>
</a>
</g>
</g>
<!-- MulleObjC&#45;&gt;mulle&#45;objc&#45;runtime -->
<g id="edge17" class="edge">
<title>MulleObjC&#45;&gt;mulle&#45;objc&#45;runtime</title>
<path fill="none" stroke="black" d="M238.12,-71.88C260.64,-62.26 288.92,-50.19 312.77,-40.01"/>
<polygon fill="black" stroke="black" points="314.19,-43.21 322.01,-36.07 311.44,-36.77 314.19,-43.21"/>
</g>
</g>
</svg>
