<?xml version="1.0" encoding="UTF-8" standalone="no"?>
<!DOCTYPE svg PUBLIC "-//W3C//DTD SVG 1.1//EN"
 "http://www.w3.org/Graphics/SVG/1.1/DTD/svg11.dtd">
<!-- Generated by graphviz version 2.43.0 (0)
 -->
<!-- Title: sourcetree Pages: 1 -->
<svg width="2535pt" height="260pt"
 viewBox="0.00 0.00 2535.00 260.00" xmlns="http://www.w3.org/2000/svg" xmlns:xlink="http://www.w3.org/1999/xlink">
<g id="graph0" class="graph" transform="scale(1 1) rotate(0) translate(4 256)">
<title>sourcetree</title>
<polygon fill="white" stroke="transparent" points="-4,4 -4,-256 2531,-256 2531,4 -4,4"/>
<!-- mulle&#45;bunchobjects -->
<g id="node1" class="node">
<title>mulle&#45;bunchobjects</title>
<polygon fill="yellow" stroke="black" points="2021,-252 1866,-252 1866,-216 2021,-216 2021,-252"/>
<text text-anchor="middle" x="1943.5" y="-230.3" font-family="Times,serif" font-size="14.00">mulle&#45;bunchobjects</text>
</g>
<!-- Foundation -->
<g id="node2" class="node">
<title>Foundation</title>
<polygon fill="lightgrey" stroke="black" points="1992,-180 1895,-180 1895,-144 1992,-144 1992,-180"/>
<text text-anchor="middle" x="1943.5" y="-158.3" font-family="Times,serif" font-size="14.00">Foundation</text>
</g>
<!-- mulle&#45;bunchobjects&#45;&gt;Foundation -->
<g id="edge7" class="edge">
<title>mulle&#45;bunchobjects&#45;&gt;Foundation</title>
<path fill="none" stroke="black" d="M1943.5,-215.7C1943.5,-207.98 1943.5,-198.71 1943.5,-190.11"/>
<polygon fill="black" stroke="black" points="1947,-190.1 1943.5,-180.1 1940,-190.1 1947,-190.1"/>
</g>
<!-- MulleFoundation -->
<g id="node3" class="node">
<title>MulleFoundation</title>
<polygon fill="lightgrey" stroke="black" points="1038,-108 901,-108 901,-72 1038,-72 1038,-108"/>
<text text-anchor="middle" x="969.5" y="-86.3" font-family="Times,serif" font-size="14.00">MulleFoundation</text>
</g>
<!-- Foundation&#45;&gt;MulleFoundation -->
<g id="edge1" class="edge">
<title>Foundation&#45;&gt;MulleFoundation</title>
<path fill="none" stroke="black" d="M1894.87,-157.5C1737.6,-146.2 1241.8,-110.57 1048.12,-96.65"/>
<polygon fill="black" stroke="black" points="1048.24,-93.15 1038.01,-95.92 1047.74,-100.13 1048.24,-93.15"/>
</g>
<!-- mulle&#45;objc&#45;compat -->
<g id="node4" class="node">
<title>mulle&#45;objc&#45;compat</title>
<polygon fill="lightgrey" stroke="black" points="1702,-108 1555,-108 1555,-72 1702,-72 1702,-108"/>
<text text-anchor="middle" x="1628.5" y="-86.3" font-family="Times,serif" font-size="14.00">mulle&#45;objc&#45;compat</text>
</g>
<!-- Foundation&#45;&gt;mulle&#45;objc&#45;compat -->
<g id="edge2" class="edge">
<title>Foundation&#45;&gt;mulle&#45;objc&#45;compat</title>
<path fill="none" stroke="black" d="M1894.97,-150.22C1846.36,-139.41 1770.57,-122.57 1712.23,-109.61"/>
<polygon fill="black" stroke="black" points="1712.81,-106.15 1702.29,-107.4 1711.29,-112.98 1712.81,-106.15"/>
</g>
<!-- MulleObjCExpatFoundation -->
<g id="node5" class="node">
<title>MulleObjCExpatFoundation</title>
<polygon fill="lightgrey" stroke="black" points="1935,-108 1720,-108 1720,-72 1935,-72 1935,-108"/>
<text text-anchor="middle" x="1827.5" y="-86.3" font-family="Times,serif" font-size="14.00">MulleObjCExpatFoundation</text>
</g>
<!-- Foundation&#45;&gt;MulleObjCExpatFoundation -->
<g id="edge3" class="edge">
<title>Foundation&#45;&gt;MulleObjCExpatFoundation</title>
<path fill="none" stroke="black" d="M1915.12,-143.88C1899.96,-134.72 1881.09,-123.34 1864.76,-113.48"/>
<polygon fill="black" stroke="black" points="1866.36,-110.36 1855.99,-108.19 1862.74,-116.35 1866.36,-110.36"/>
</g>
<!-- MulleObjCHTTPFoundation -->
<g id="node6" class="node">
<title>MulleObjCHTTPFoundation</title>
<polygon fill="lightgrey" stroke="black" points="2166,-108 1953,-108 1953,-72 2166,-72 2166,-108"/>
<text text-anchor="middle" x="2059.5" y="-86.3" font-family="Times,serif" font-size="14.00">MulleObjCHTTPFoundation</text>
</g>
<!-- Foundation&#45;&gt;MulleObjCHTTPFoundation -->
<g id="edge4" class="edge">
<title>Foundation&#45;&gt;MulleObjCHTTPFoundation</title>
<path fill="none" stroke="black" d="M1971.88,-143.88C1987.04,-134.72 2005.91,-123.34 2022.24,-113.48"/>
<polygon fill="black" stroke="black" points="2024.26,-116.35 2031.01,-108.19 2020.64,-110.36 2024.26,-116.35"/>
</g>
<!-- MulleObjCInetOSFoundation -->
<g id="node7" class="node">
<title>MulleObjCInetOSFoundation</title>
<polygon fill="lightgrey" stroke="black" points="2405.5,-108 2183.5,-108 2183.5,-72 2405.5,-72 2405.5,-108"/>
<text text-anchor="middle" x="2294.5" y="-86.3" font-family="Times,serif" font-size="14.00">MulleObjCInetOSFoundation</text>
</g>
<!-- Foundation&#45;&gt;MulleObjCInetOSFoundation -->
<g id="edge5" class="edge">
<title>Foundation&#45;&gt;MulleObjCInetOSFoundation</title>
<path fill="none" stroke="black" d="M1992.31,-151.27C2045.52,-140.65 2132.01,-123.41 2198.85,-110.07"/>
<polygon fill="black" stroke="black" points="2199.86,-113.44 2208.99,-108.05 2198.5,-106.58 2199.86,-113.44"/>
</g>
<!-- objc&#45;compat -->
<g id="node8" class="node">
<title>objc&#45;compat</title>
<polygon fill="lightgrey" stroke="black" points="2527,-108 2424,-108 2424,-72 2527,-72 2527,-108"/>
<text text-anchor="middle" x="2475.5" y="-86.3" font-family="Times,serif" font-size="14.00">objc&#45;compat</text>
</g>
<!-- Foundation&#45;&gt;objc&#45;compat -->
<g id="edge6" class="edge">
<title>Foundation&#45;&gt;objc&#45;compat</title>
<path fill="none" stroke="black" d="M1992.03,-158.11C2076.11,-152.53 2254.33,-138.27 2413.73,-107.96"/>
<polygon fill="black" stroke="black" points="2414.56,-111.37 2423.72,-106.04 2413.24,-104.49 2414.56,-111.37"/>
</g>
<!-- MulleObjCArchiverFoundation -->
<g id="node9" class="node">
<title>MulleObjCArchiverFoundation</title>
<polygon fill="lightgrey" stroke="black" points="233,-36 0,-36 0,0 233,0 233,-36"/>
<text text-anchor="middle" x="116.5" y="-14.3" font-family="Times,serif" font-size="14.00">MulleObjCArchiverFoundation</text>
</g>
<!-- MulleFoundation&#45;&gt;MulleObjCArchiverFoundation -->
<g id="edge8" class="edge">
<title>MulleFoundation&#45;&gt;MulleObjCArchiverFoundation</title>
<path fill="none" stroke="black" d="M900.87,-85.44C773.39,-78.51 491.19,-61.69 243.52,-36.18"/>
<polygon fill="black" stroke="black" points="243.55,-32.66 233.24,-35.11 242.83,-39.62 243.55,-32.66"/>
</g>
<!-- MulleObjCCalendarFoundation -->
<g id="node10" class="node">
<title>MulleObjCCalendarFoundation</title>
<polygon fill="lightgrey" stroke="black" points="488,-36 251,-36 251,0 488,0 488,-36"/>
<text text-anchor="middle" x="369.5" y="-14.3" font-family="Times,serif" font-size="14.00">MulleObjCCalendarFoundation</text>
</g>
<!-- MulleFoundation&#45;&gt;MulleObjCCalendarFoundation -->
<g id="edge9" class="edge">
<title>MulleFoundation&#45;&gt;MulleObjCCalendarFoundation</title>
<path fill="none" stroke="black" d="M900.66,-81.71C810.77,-72.09 648.24,-54.37 498.35,-36.09"/>
<polygon fill="black" stroke="black" points="498.39,-32.57 488.04,-34.83 497.54,-39.52 498.39,-32.57"/>
</g>
<!-- MulleObjCDecimalFoundation -->
<g id="node11" class="node">
<title>MulleObjCDecimalFoundation</title>
<polygon fill="lightgrey" stroke="black" points="736.5,-36 506.5,-36 506.5,0 736.5,0 736.5,-36"/>
<text text-anchor="middle" x="621.5" y="-14.3" font-family="Times,serif" font-size="14.00">MulleObjCDecimalFoundation</text>
</g>
<!-- MulleFoundation&#45;&gt;MulleObjCDecimalFoundation -->
<g id="edge10" class="edge">
<title>MulleFoundation&#45;&gt;MulleObjCDecimalFoundation</title>
<path fill="none" stroke="black" d="M900.75,-75.17C847.94,-64.55 774.42,-49.76 716.08,-38.02"/>
<polygon fill="black" stroke="black" points="716.6,-34.56 706.11,-36.02 715.22,-41.42 716.6,-34.56"/>
</g>
<!-- MulleObjCKVCFoundation -->
<g id="node12" class="node">
<title>MulleObjCKVCFoundation</title>
<polygon fill="lightgrey" stroke="black" points="958,-36 755,-36 755,0 958,0 958,-36"/>
<text text-anchor="middle" x="856.5" y="-14.3" font-family="Times,serif" font-size="14.00">MulleObjCKVCFoundation</text>
</g>
<!-- MulleFoundation&#45;&gt;MulleObjCKVCFoundation -->
<g id="edge11" class="edge">
<title>MulleFoundation&#45;&gt;MulleObjCKVCFoundation</title>
<path fill="none" stroke="black" d="M941.86,-71.88C927.08,-62.72 908.71,-51.34 892.8,-41.48"/>
<polygon fill="black" stroke="black" points="894.59,-38.48 884.25,-36.19 890.91,-44.43 894.59,-38.48"/>
</g>
<!-- MulleObjCMathFoundation -->
<g id="node13" class="node">
<title>MulleObjCMathFoundation</title>
<polygon fill="lightgrey" stroke="black" points="1186.5,-36 976.5,-36 976.5,0 1186.5,0 1186.5,-36"/>
<text text-anchor="middle" x="1081.5" y="-14.3" font-family="Times,serif" font-size="14.00">MulleObjCMathFoundation</text>
</g>
<!-- MulleFoundation&#45;&gt;MulleObjCMathFoundation -->
<g id="edge12" class="edge">
<title>MulleFoundation&#45;&gt;MulleObjCMathFoundation</title>
<path fill="none" stroke="black" d="M996.9,-71.88C1011.41,-62.81 1029.42,-51.55 1045.09,-41.76"/>
<polygon fill="black" stroke="black" points="1047.37,-44.46 1054,-36.19 1043.66,-38.52 1047.37,-44.46"/>
</g>
<!-- MulleObjCOSFoundation -->
<g id="node14" class="node">
<title>MulleObjCOSFoundation</title>
<polygon fill="lightgrey" stroke="black" points="1398.5,-36 1204.5,-36 1204.5,0 1398.5,0 1398.5,-36"/>
<text text-anchor="middle" x="1301.5" y="-14.3" font-family="Times,serif" font-size="14.00">MulleObjCOSFoundation</text>
</g>
<!-- MulleFoundation&#45;&gt;MulleObjCOSFoundation -->
<g id="edge13" class="edge">
<title>MulleFoundation&#45;&gt;MulleObjCOSFoundation</title>
<path fill="none" stroke="black" d="M1038.29,-74.5C1088.27,-63.96 1156.39,-49.6 1210.81,-38.12"/>
<polygon fill="black" stroke="black" points="1211.74,-41.5 1220.81,-36.01 1210.3,-34.65 1211.74,-41.5"/>
</g>
<!-- MulleObjCUnicodeFoundation -->
<g id="node15" class="node">
<title>MulleObjCUnicodeFoundation</title>
<polygon fill="lightgrey" stroke="black" points="1647,-36 1416,-36 1416,0 1647,0 1647,-36"/>
<text text-anchor="middle" x="1531.5" y="-14.3" font-family="Times,serif" font-size="14.00">MulleObjCUnicodeFoundation</text>
</g>
<!-- MulleFoundation&#45;&gt;MulleObjCUnicodeFoundation -->
<g id="edge14" class="edge">
<title>MulleFoundation&#45;&gt;MulleObjCUnicodeFoundation</title>
<path fill="none" stroke="black" d="M1038.2,-81.03C1122.37,-71.18 1269.62,-53.72 1405.8,-36.21"/>
<polygon fill="black" stroke="black" points="1406.53,-39.64 1416,-34.9 1405.63,-32.7 1406.53,-39.64"/>
</g>
<!-- craftinfo/expat -->
<g id="node16" class="node">
<title>craftinfo/expat</title>
<polygon fill="lightgrey" stroke="black" points="1787.5,-36 1665.5,-36 1665.5,0 1787.5,0 1787.5,-36"/>
<text text-anchor="middle" x="1726.5" y="-14.3" font-family="Times,serif" font-size="14.00">craftinfo/expat</text>
</g>
<!-- MulleObjCExpatFoundation&#45;&gt;craftinfo/expat -->
<g id="edge15" class="edge">
<title>MulleObjCExpatFoundation&#45;&gt;craftinfo/expat</title>
<path fill="none" stroke="black" d="M1802.79,-71.88C1789.83,-62.89 1773.77,-51.76 1759.73,-42.03"/>
<polygon fill="black" stroke="black" points="1761.52,-39.01 1751.3,-36.19 1757.53,-44.76 1761.52,-39.01"/>
</g>
<!-- expat -->
<g id="node17" class="node">
<title>expat</title>
<polygon fill="lightgrey" stroke="black" points="1861.5,-36 1805.5,-36 1805.5,0 1861.5,0 1861.5,-36"/>
<text text-anchor="middle" x="1833.5" y="-14.3" font-family="Times,serif" font-size="14.00">expat</text>
</g>
<!-- MulleObjCExpatFoundation&#45;&gt;expat -->
<g id="edge16" class="edge">
<title>MulleObjCExpatFoundation&#45;&gt;expat</title>
<path fill="none" stroke="black" d="M1828.98,-71.7C1829.64,-63.98 1830.44,-54.71 1831.18,-46.11"/>
<polygon fill="black" stroke="black" points="1834.67,-46.37 1832.03,-36.1 1827.69,-45.77 1834.67,-46.37"/>
</g>
<!-- MulleBase64 -->
<g id="node18" class="node">
<title>MulleBase64</title>
<polygon fill="lightgrey" stroke="black" points="1989.5,-36 1879.5,-36 1879.5,0 1989.5,0 1989.5,-36"/>
<text text-anchor="middle" x="1934.5" y="-14.3" font-family="Times,serif" font-size="14.00">MulleBase64</text>
</g>
<!-- MulleObjCExpatFoundation&#45;&gt;MulleBase64 -->
<g id="edge17" class="edge">
<title>MulleObjCExpatFoundation&#45;&gt;MulleBase64</title>
<path fill="none" stroke="black" d="M1853.68,-71.88C1867.54,-62.81 1884.74,-51.55 1899.71,-41.76"/>
<polygon fill="black" stroke="black" points="1901.77,-44.59 1908.22,-36.19 1897.94,-38.74 1901.77,-44.59"/>
</g>
<!-- mulle&#45;http -->
<g id="node19" class="node">
<title>mulle&#45;http</title>
<polygon fill="lightgrey" stroke="black" points="2105,-36 2014,-36 2014,0 2105,0 2105,-36"/>
<text text-anchor="middle" x="2059.5" y="-14.3" font-family="Times,serif" font-size="14.00">mulle&#45;http</text>
</g>
<!-- MulleObjCHTTPFoundation&#45;&gt;mulle&#45;http -->
<g id="edge18" class="edge">
<title>MulleObjCHTTPFoundation&#45;&gt;mulle&#45;http</title>
<path fill="none" stroke="black" d="M2059.5,-71.7C2059.5,-63.98 2059.5,-54.71 2059.5,-46.11"/>
<polygon fill="black" stroke="black" points="2063,-46.1 2059.5,-36.1 2056,-46.1 2063,-46.1"/>
</g>
<!-- MulleObjCInetFoundation -->
<g id="node20" class="node">
<title>MulleObjCInetFoundation</title>
<polygon fill="lightgrey" stroke="black" points="2395,-36 2194,-36 2194,0 2395,0 2395,-36"/>
<text text-anchor="middle" x="2294.5" y="-14.3" font-family="Times,serif" font-size="14.00">MulleObjCInetFoundation</text>
</g>
<!-- MulleObjCInetOSFoundation&#45;&gt;MulleObjCInetFoundation -->
<g id="edge19" class="edge">
<title>MulleObjCInetOSFoundation&#45;&gt;MulleObjCInetFoundation</title>
<path fill="none" stroke="black" d="M2294.5,-71.7C2294.5,-63.98 2294.5,-54.71 2294.5,-46.11"/>
<polygon fill="black" stroke="black" points="2298,-46.1 2294.5,-36.1 2291,-46.1 2298,-46.1"/>
</g>
</g>
</svg>
