<?xml version="1.0" encoding="UTF-8" standalone="no"?>
<!DOCTYPE svg PUBLIC "-//W3C//DTD SVG 1.1//EN"
 "http://www.w3.org/Graphics/SVG/1.1/DTD/svg11.dtd">
<!-- Generated by graphviz version 2.43.0 (0)
 -->
<!-- Title: sourcetree Pages: 1 -->
<svg width="412pt" height="188pt"
 viewBox="0.00 0.00 412.00 188.00" xmlns="http://www.w3.org/2000/svg" xmlns:xlink="http://www.w3.org/1999/xlink">
<g id="graph0" class="graph" transform="scale(1 1) rotate(0) translate(4 184)">
<title>sourcetree</title>
<polygon fill="white" stroke="transparent" points="-4,4 -4,-184 408,-184 408,4 -4,4"/>
<!-- mulle&#45;bunchobjects -->
<g id="node1" class="node">
<title>mulle&#45;bunchobjects</title>
<polygon fill="yellow" stroke="black" points="273,-180 118,-180 118,-144 273,-144 273,-180"/>
<text text-anchor="middle" x="195.5" y="-158.3" font-family="Times,serif" font-size="14.00">mulle&#45;bunchobjects</text>
</g>
<!-- mulle&#45;allocator -->
<g id="node3" class="node">
<title>mulle&#45;allocator</title>
<g id="a_node3"><a xlink:href="https://github.com/mulle-c/mulle-allocator" xlink:title="mulle&#45;allocator">
<polygon fill="lightgrey" stroke="black" points="123,-108 0,-108 0,-72 123,-72 123,-108"/>
<text text-anchor="middle" x="61.5" y="-86.3" font-family="Times,serif" font-size="14.00">mulle&#45;allocator</text>
</a>
</g>
</g>
<!-- mulle&#45;bunchobjects&#45;&gt;mulle&#45;allocator -->
<g id="edge1" class="edge">
<title>mulle&#45;bunchobjects&#45;&gt;mulle&#45;allocator</title>
<path fill="none" stroke="black" d="M162.72,-143.88C144.87,-134.55 122.6,-122.92 103.5,-112.94"/>
<polygon fill="black" stroke="black" points="104.89,-109.72 94.41,-108.19 101.65,-115.92 104.89,-109.72"/>
</g>
<!-- mulle&#45;thread -->
<g id="node4" class="node">
<title>mulle&#45;thread</title>
<g id="a_node4"><a xlink:href="https://github.com/mulle-concurrent/mulle-thread" xlink:title="mulle&#45;thread">
<polygon fill="lightgrey" stroke="black" points="249.5,-108 141.5,-108 141.5,-72 249.5,-72 249.5,-108"/>
<text text-anchor="middle" x="195.5" y="-86.3" font-family="Times,serif" font-size="14.00">mulle&#45;thread</text>
</a>
</g>
</g>
<!-- mulle&#45;bunchobjects&#45;&gt;mulle&#45;thread -->
<g id="edge2" class="edge">
<title>mulle&#45;bunchobjects&#45;&gt;mulle&#45;thread</title>
<path fill="none" stroke="black" d="M195.5,-143.7C195.5,-135.98 195.5,-126.71 195.5,-118.11"/>
<polygon fill="black" stroke="black" points="199,-118.1 195.5,-108.1 192,-118.1 199,-118.1"/>
</g>
<!-- objc&#45;compat -->
<g id="node5" class="node">
<title>objc&#45;compat</title>
<g id="a_node5"><a xlink:href="https://github.com/MulleFoundation/objc-compat" xlink:title="objc&#45;compat">
<polygon fill="lightgrey" stroke="black" points="377,-108 274,-108 274,-72 377,-72 377,-108"/>
<text text-anchor="middle" x="325.5" y="-86.3" font-family="Times,serif" font-size="14.00">objc&#45;compat</text>
</a>
</g>
</g>
<!-- mulle&#45;bunchobjects&#45;&gt;objc&#45;compat -->
<g id="edge3" class="edge">
<title>mulle&#45;bunchobjects&#45;&gt;objc&#45;compat</title>
<path fill="none" stroke="black" d="M227.3,-143.88C244.61,-134.55 266.22,-122.92 284.76,-112.94"/>
<polygon fill="black" stroke="black" points="286.43,-116.01 293.58,-108.19 283.11,-109.85 286.43,-116.01"/>
</g>
<!-- mintomic -->
<g id="node2" class="node">
<title>mintomic</title>
<g id="a_node2"><a xlink:href="https://github.com/mulle-concurrent/mintomic" xlink:title="mintomic">
<polygon fill="lightgrey" stroke="black" points="134,-36 51,-36 51,0 134,0 134,-36"/>
<text text-anchor="middle" x="92.5" y="-14.3" font-family="Times,serif" font-size="14.00">mintomic</text>
</a>
</g>
</g>
<!-- mulle&#45;thread&#45;&gt;mintomic -->
<g id="edge4" class="edge">
<title>mulle&#45;thread&#45;&gt;mintomic</title>
<path fill="none" stroke="black" d="M170.3,-71.88C157.09,-62.89 140.71,-51.76 126.39,-42.03"/>
<polygon fill="black" stroke="black" points="128.03,-38.92 117.79,-36.19 124.1,-44.71 128.03,-38.92"/>
</g>
<!-- mulle&#45;c11 -->
<g id="node6" class="node">
<title>mulle&#45;c11</title>
<g id="a_node6"><a xlink:href="https://github.com/mulle-c/mulle-c11" xlink:title="mulle&#45;c11">
<polygon fill="lightgrey" stroke="black" points="238.5,-36 152.5,-36 152.5,0 238.5,0 238.5,-36"/>
<text text-anchor="middle" x="195.5" y="-14.3" font-family="Times,serif" font-size="14.00">mulle&#45;c11</text>
</a>
</g>
</g>
<!-- mulle&#45;thread&#45;&gt;mulle&#45;c11 -->
<g id="edge5" class="edge">
<title>mulle&#45;thread&#45;&gt;mulle&#45;c11</title>
<path fill="none" stroke="black" d="M195.5,-71.7C195.5,-63.98 195.5,-54.71 195.5,-46.11"/>
<polygon fill="black" stroke="black" points="199,-46.1 195.5,-36.1 192,-46.1 199,-46.1"/>
</g>
<!-- mulle&#45;objc&#45;compat -->
<g id="node7" class="node">
<title>mulle&#45;objc&#45;compat</title>
<g id="a_node7"><a xlink:href="https://github.com/mulle-objc/mulle-objc-compat" xlink:title="mulle&#45;objc&#45;compat">
<polygon fill="lightgrey" stroke="black" points="404,-36 257,-36 257,0 404,0 404,-36"/>
<text text-anchor="middle" x="330.5" y="-14.3" font-family="Times,serif" font-size="14.00">mulle&#45;objc&#45;compat</text>
</a>
</g>
</g>
<!-- objc&#45;compat&#45;&gt;mulle&#45;objc&#45;compat -->
<g id="edge6" class="edge">
<title>objc&#45;compat&#45;&gt;mulle&#45;objc&#45;compat</title>
<path fill="none" stroke="black" d="M326.74,-71.7C327.29,-63.98 327.95,-54.71 328.56,-46.11"/>
<polygon fill="black" stroke="black" points="332.06,-46.33 329.28,-36.1 325.07,-45.83 332.06,-46.33"/>
</g>
</g>
</svg>
