<?xml version="1.0" encoding="UTF-8" standalone="no"?>
<!DOCTYPE svg PUBLIC "-//W3C//DTD SVG 1.1//EN"
 "http://www.w3.org/Graphics/SVG/1.1/DTD/svg11.dtd">
<!-- Generated by graphviz version 2.43.0 (0)
 -->
<!-- Title: sourcetree Pages: 1 -->
<svg width="302pt" height="116pt"
 viewBox="0.00 0.00 301.50 116.00" xmlns="http://www.w3.org/2000/svg" xmlns:xlink="http://www.w3.org/1999/xlink">
<g id="graph0" class="graph" transform="scale(1 1) rotate(0) translate(4 112)">
<title>sourcetree</title>
<polygon fill="white" stroke="transparent" points="-4,4 -4,-112 297.5,-112 297.5,4 -4,4"/>
<!-- mulle&#45;bunchobjects -->
<g id="node1" class="node">
<title>mulle&#45;bunchobjects</title>
<polygon fill="yellow" stroke="black" points="241.5,-108 86.5,-108 86.5,-72 241.5,-72 241.5,-108"/>
<text text-anchor="middle" x="164" y="-86.3" font-family="Times,serif" font-size="14.00">mulle&#45;bunchobjects</text>
</g>
<!-- MulleFoundationBase -->
<g id="node2" class="node">
<title>MulleFoundationBase</title>
<g id="a_node2"><a xlink:href="https://github.com/MulleFoundation/MulleFoundationBase" xlink:title="MulleFoundationBase">
<polygon fill="lightgrey" stroke="black" points="172,-36 0,-36 0,0 172,0 172,-36"/>
<text text-anchor="middle" x="86" y="-14.3" font-family="Times,serif" font-size="14.00">MulleFoundationBase</text>
</a>
</g>
</g>
<!-- mulle&#45;bunchobjects&#45;&gt;MulleFoundationBase -->
<g id="edge1" class="edge">
<title>mulle&#45;bunchobjects&#45;&gt;MulleFoundationBase</title>
<path fill="none" stroke="black" d="M144.72,-71.7C135.08,-63.05 123.27,-52.45 112.77,-43.03"/>
<polygon fill="black" stroke="black" points="114.84,-40.18 105.06,-36.1 110.16,-45.39 114.84,-40.18"/>
</g>
<!-- objc&#45;compat -->
<g id="node3" class="node">
<title>objc&#45;compat</title>
<g id="a_node3"><a xlink:href="https://github.com/MulleFoundation/objc-compat" xlink:title="objc&#45;compat">
<polygon fill="lightgrey" stroke="black" points="293.5,-36 190.5,-36 190.5,0 293.5,0 293.5,-36"/>
<text text-anchor="middle" x="242" y="-14.3" font-family="Times,serif" font-size="14.00">objc&#45;compat</text>
</a>
</g>
</g>
<!-- mulle&#45;bunchobjects&#45;&gt;objc&#45;compat -->
<g id="edge2" class="edge">
<title>mulle&#45;bunchobjects&#45;&gt;objc&#45;compat</title>
<path fill="none" stroke="black" d="M183.28,-71.7C192.92,-63.05 204.73,-52.45 215.23,-43.03"/>
<polygon fill="black" stroke="black" points="217.84,-45.39 222.94,-36.1 213.16,-40.18 217.84,-45.39"/>
</g>
</g>
</svg>
